<?xml version="1.0" encoding="UTF-8" standalone="no"?>
<svg
   xmlns:dc="http://purl.org/dc/elements/1.1/"
   xmlns:cc="http://creativecommons.org/ns#"
   xmlns:rdf="http://www.w3.org/1999/02/22-rdf-syntax-ns#"
   xmlns:svg="http://www.w3.org/2000/svg"
   xmlns="http://www.w3.org/2000/svg"
   xmlns:sodipodi="http://sodipodi.sourceforge.net/DTD/sodipodi-0.dtd"
   xmlns:inkscape="http://www.inkscape.org/namespaces/inkscape"
   version="1.1"
   width="160"
   height="40"
   viewBox="0 0 160 40"
   enable-background="new 0 0 76.00 76.00"
   xml:space="preserve"
   id="svg4136"
   inkscape:version="0.91 r13725"
   sodipodi:docname="buildgem-logo.paths.inkscape.svg"
   inkscape:export-filename="C:\Localhost\hosts\htdocs\localhost\projects\buildgem\logo\build\buildgem-logo-320x80.png"
   inkscape:export-xdpi="180"
   inkscape:export-ydpi="180"><metadata
     id="metadata4144"><rdf:RDF><cc:Work
         rdf:about=""><dc:format>image/svg+xml</dc:format><dc:type
           rdf:resource="http://purl.org/dc/dcmitype/StillImage" /><dc:title></dc:title></cc:Work></rdf:RDF></metadata><defs
     id="defs4142"><filter
       inkscape:collect="always"
       style="color-interpolation-filters:sRGB"
       id="filter6367"
       x="-0.013297207"
       width="1.0265944"
       y="-0.010933395"
       height="1.0218668"><feGaussianBlur
         inkscape:collect="always"
         stdDeviation="0.086263522"
         id="feGaussianBlur6369" /></filter></defs><sodipodi:namedview
     pagecolor="#ffffff"
     bordercolor="#666666"
     borderopacity="1"
     objecttolerance="10"
     gridtolerance="10"
     guidetolerance="10"
     inkscape:pageopacity="0"
     inkscape:pageshadow="2"
     inkscape:window-width="1366"
     inkscape:window-height="705"
     id="namedview4140"
     showgrid="false"
     inkscape:zoom="1.7697369"
     inkscape:cx="-76.104076"
     inkscape:cy="-20.084823"
     inkscape:window-x="-8"
     inkscape:window-y="-8"
     inkscape:window-maximized="1"
     inkscape:current-layer="svg4136" /><path
     d="m 151.37824,19.926869 -7.7848,-9.386428 7.78058,-9.549361 7.78904,9.553541 -7.78482,9.382248 z"
     id="path4138"
     inkscape:connector-curvature="0"
     style="fill:#e8ba00;fill-opacity:1;stroke-width:0.2;stroke-linejoin:round;opacity:1;filter:url(#filter6367)" /><g
     transform="scale(0.9739668,1.026729)"
     style="font-style:normal;font-variant:normal;font-weight:bold;font-stretch:normal;font-size:24.28592873px;line-height:125%;font-family:Orbitron;-inkscape-font-specification:'Orbitron Bold';letter-spacing:0px;word-spacing:0px;fill:#111111;fill-opacity:1;stroke:none;stroke-width:1px;stroke-linecap:butt;stroke-linejoin:miter;stroke-opacity:1"
     id="text5792"><path
       id="path4153"
       style="font-style:normal;font-variant:normal;font-weight:300;font-stretch:normal;font-size:30.35740662px;font-family:Orbitron;-inkscape-font-specification:'Orbitron Light';letter-spacing:-0.92059475px;fill:#111111;fill-opacity:1"
       d="m 146.22919,20.377407 -23.25377,0 0,17.607296 2.51967,0 0,-13.93405 c 0,-0.637505 0.54643,-1.183938 1.18393,-1.183938 l 7.3465,0 c 0.6375,0 1.18394,0.546433 1.18394,1.183938 l 0,13.93405 2.51966,0 0,-13.93405 c 0,-0.637505 0.51608,-1.183938 1.18394,-1.183938 l 7.31613,0 c 0.66787,0 1.2143,0.546433 1.2143,1.183938 l 0,13.93405 2.45895,0 0,-13.93405 c 0,-2.033946 -1.60894,-3.673246 -3.67325,-3.673246 z m -29.17592,0 -10.56438,0 c -2.03394,0 -3.67324,1.6393 -3.67324,3.673246 l 0,10.260804 c 0,2.033946 1.6393,3.673246 3.67324,3.673246 l 14.26798,0 0,-2.489307 -14.26798,0 c -0.6375,0 -1.18394,-0.546434 -1.18394,-1.183939 l 0,-3.885748 15.45192,0 0,-6.375056 c 0,-2.033946 -1.6393,-3.673246 -3.7036,-3.673246 z m -11.74832,7.558994 0,-3.885748 c 0,-0.637505 0.54644,-1.183938 1.18394,-1.183938 l 10.56438,0 c 0.66786,0 1.18394,0.546433 1.18394,1.183938 l 0,3.885748 -12.93226,0 z m -4.75861,-8.166142 c 0,-2.033946 -1.608944,-3.642889 -3.64289,-3.642889 l -14.571555,0 c -2.033946,0 -3.642889,1.608943 -3.642889,3.642889 l 0,14.571555 c 0,2.033947 1.608943,3.642889 3.642889,3.642889 l 14.571555,0 c 2.033946,0 3.64289,-1.608942 3.64289,-3.642889 l 0,-7.892925 -7.862569,0 0,2.489307 5.403618,0 0,5.403618 c 0,0.637506 -0.546433,1.183939 -1.183939,1.183939 l -14.571555,0 c -0.637506,0 -1.183939,-0.546433 -1.183939,-1.183939 l 0,-14.571555 c 0,-0.637505 0.546433,-1.183939 1.183939,-1.183939 l 14.571555,0 c 0.637506,0 1.183939,0.546434 1.183939,1.183939 l 0,0.880365 2.458951,0 0,-0.880365 z M 73.781927,14.6095 l 0,5.767907 -11.748316,0 c -2.064304,0 -3.703604,1.6393 -3.703604,3.673246 l 0,10.260804 c 0,2.033946 1.6393,3.673246 3.703604,3.673246 l 14.237624,0 0,-23.375203 -2.489308,0 z M 62.033611,35.495396 c -0.637506,0 -1.183939,-0.546434 -1.183939,-1.183939 l 0,-10.260804 c 0,-0.637505 0.546433,-1.183938 1.183939,-1.183938 l 10.564377,0 c 0.637506,0 1.183939,0.546433 1.183939,1.183938 l 0,10.260804 c 0,0.637505 -0.546433,1.183939 -1.183939,1.183939 l -10.564377,0 z M 50.762858,14.6095 l 0,19.701957 c 0,2.033946 1.6393,3.673246 3.673247,3.673246 l 2.975025,0 0,-2.489307 -2.975025,0 c -0.637506,0 -1.183939,-0.546434 -1.183939,-1.183939 l 0,-19.701957 -2.489308,0 z m -5.423625,23.375203 2.489307,0 0,-17.607296 -2.489307,0 0,17.607296 z m 0,-23.375203 0,2.489307 2.489307,0 0,-2.489307 -2.489307,0 z m -4.705013,5.767907 0,13.93405 c 0,0.637505 -0.546434,1.183939 -1.214297,1.183939 l -10.564377,0 c -0.637506,0 -1.183939,-0.546434 -1.183939,-1.183939 l 0,-13.93405 -2.489307,0 0,13.93405 c 0,2.033946 1.6393,3.673246 3.673246,3.673246 l 10.564377,0 c 2.064304,0 3.703604,-1.6393 3.703604,-3.673246 l 0,-13.93405 -2.489307,0 z m -19.085884,5.646478 c 0.242859,-0.485719 0.394646,-1.032152 0.394646,-1.608943 l 0,-4.644683 c 0,-2.033946 -1.608942,-3.642889 -3.642889,-3.642889 l -17.273364,0 0,21.857333 18.214444,0 c 2.033946,0 3.642889,-1.608942 3.642889,-3.642889 l 0,-5.100044 c 0,-1.032152 -0.485719,-2.033946 -1.214296,-2.701809 l -0.12143,-0.516076 z M 18.300093,18.58632 c 0.637506,0 1.153582,0.546434 1.153582,1.183939 l 0,4.644683 c 0,0.637506 -0.516076,1.183939 -1.153582,1.183939 l -13.6304752,0 c -0.6375055,0 -1.1839389,-0.546433 -1.1839389,-1.183939 l 0,-4.644683 c 0,-0.637505 0.5464334,-1.183939 1.1839389,-1.183939 l 13.6304752,0 z m 2.125019,15.755494 c 0,0.637506 -0.546433,1.183939 -1.183939,1.183939 l -14.5715552,0 c -0.6375055,0 -1.1839389,-0.546433 -1.1839389,-1.183939 l 0,-5.100044 c 0,-0.637506 0.5464334,-1.183939 1.1839389,-1.183939 l 14.5715552,0 c 0.637506,0 1.183939,0.546433 1.183939,1.183939 l 0,5.100044 z" /></g></svg>